<?xml version="1.0" encoding="UTF-8" ?>
<svg version="1.1" width="32" height="32" xmlns="http://www.w3.org/2000/svg" shape-rendering="crispEdges">
<rect x="13" y="0" width="6" height="4" fill="#CBDBFC" />
<rect x="10" y="1" width="3" height="3" fill="#CBDBFC" />
<rect x="19" y="1" width="3" height="3" fill="#CBDBFC" />
<rect x="8" y="2" width="2" height="2" fill="#CBDBFC" />
<rect x="22" y="2" width="2" height="3" fill="#CBDBFC" />
<rect x="7" y="3" width="1" height="2" fill="#CBDBFC" />
<rect x="24" y="3" width="1" height="2" fill="#CBDBFC" />
<rect x="5" y="4" width="2" height="2" fill="#CBDBFC" />
<rect x="8" y="4" width="13" height="3" fill="#4B692F" />
<rect x="21" y="4" width="1" height="3" fill="#CBDBFC" />
<rect x="25" y="4" width="2" height="1" fill="#CBDBFC" />
<rect x="4" y="5" width="1" height="6" fill="#CBDBFC" />
<rect x="7" y="5" width="1" height="12" fill="#4B692F" />
<rect x="22" y="5" width="1" height="1" fill="#CBDBFC" />
<rect x="23" y="5" width="6" height="4" fill="#AC3232" />
<rect x="5" y="6" width="1" height="3" fill="#CBDBFC" />
<rect x="6" y="6" width="1" height="15" fill="#4B692F" />
<rect x="22" y="6" width="1" height="6" fill="#AC3232" />
<rect x="29" y="6" width="1" height="5" fill="#AC3232" />
<rect x="3" y="7" width="1" height="8" fill="#CBDBFC" />
<rect x="8" y="7" width="12" height="1" fill="#4B692F" />
<rect x="20" y="7" width="1" height="1" fill="#CBDBFC" />
<rect x="21" y="7" width="1" height="6" fill="#AC3232" />
<rect x="30" y="7" width="1" height="4" fill="#AC3232" />
<rect x="2" y="8" width="1" height="11" fill="#CBDBFC" />
<rect x="8" y="8" width="2" height="3" fill="#4B692F" />
<rect x="10" y="8" width="10" height="1" fill="#CBDBFC" />
<rect x="20" y="8" width="1" height="6" fill="#AC3232" />
<rect x="5" y="9" width="1" height="16" fill="#4B692F" />
<rect x="10" y="9" width="9" height="1" fill="#CBDBFC" />
<rect x="19" y="9" width="1" height="7" fill="#AC3232" />
<rect x="23" y="9" width="2" height="1" fill="#AC3232" />
<rect x="25" y="9" width="2" height="11" fill="#CBDBFC" />
<rect x="27" y="9" width="2" height="1" fill="#AC3232" />
<rect x="1" y="10" width="1" height="12" fill="#CBDBFC" />
<rect x="10" y="10" width="8" height="1" fill="#CBDBFC" />
<rect x="18" y="10" width="1" height="9" fill="#AC3232" />
<rect x="23" y="10" width="1" height="1" fill="#AC3232" />
<rect x="24" y="10" width="1" height="11" fill="#CBDBFC" />
<rect x="27" y="10" width="1" height="9" fill="#CBDBFC" />
<rect x="28" y="10" width="1" height="1" fill="#AC3232" />
<rect x="4" y="11" width="1" height="14" fill="#4B692F" />
<rect x="8" y="11" width="1" height="5" fill="#4B692F" />
<rect x="9" y="11" width="3" height="1" fill="#CBDBFC" />
<rect x="12" y="11" width="5" height="3" fill="#4B692F" />
<rect x="17" y="11" width="1" height="15" fill="#AC3232" />
<rect x="23" y="11" width="1" height="10" fill="#CBDBFC" />
<rect x="28" y="11" width="3" height="8" fill="#CBDBFC" />
<rect x="9" y="12" width="3" height="4" fill="#4B692F" />
<rect x="22" y="12" width="1" height="10" fill="#CBDBFC" />
<rect x="0" y="13" width="1" height="6" fill="#CBDBFC" />
<rect x="21" y="13" width="1" height="9" fill="#CBDBFC" />
<rect x="31" y="13" width="1" height="6" fill="#CBDBFC" />
<rect x="12" y="14" width="4" height="1" fill="#4B692F" />
<rect x="16" y="14" width="1" height="12" fill="#AC3232" />
<rect x="20" y="14" width="1" height="8" fill="#CBDBFC" />
<rect x="3" y="15" width="1" height="10" fill="#4B692F" />
<rect x="12" y="15" width="1" height="1" fill="#4B692F" />
<rect x="13" y="15" width="2" height="2" fill="#CBDBFC" />
<rect x="15" y="15" width="1" height="10" fill="#AC3232" />
<rect x="8" y="16" width="5" height="14" fill="#CBDBFC" />
<rect x="19" y="16" width="1" height="6" fill="#CBDBFC" />
<rect x="7" y="17" width="1" height="12" fill="#CBDBFC" />
<rect x="13" y="17" width="1" height="15" fill="#CBDBFC" />
<rect x="14" y="17" width="1" height="6" fill="#AC3232" />
<rect x="2" y="19" width="1" height="6" fill="#4B692F" />
<rect x="18" y="19" width="1" height="2" fill="#CBDBFC" />
<rect x="27" y="19" width="2" height="4" fill="#AC3232" />
<rect x="29" y="19" width="2" height="3" fill="#CBDBFC" />
<rect x="25" y="20" width="1" height="1" fill="#CBDBFC" />
<rect x="26" y="20" width="1" height="5" fill="#AC3232" />
<rect x="6" y="21" width="1" height="7" fill="#CBDBFC" />
<rect x="18" y="21" width="1" height="5" fill="#AC3232" />
<rect x="23" y="21" width="3" height="4" fill="#AC3232" />
<rect x="19" y="22" width="4" height="4" fill="#AC3232" />
<rect x="29" y="22" width="1" height="2" fill="#CBDBFC" />
<rect x="14" y="23" width="1" height="9" fill="#CBDBFC" />
<rect x="27" y="23" width="1" height="1" fill="#AC3232" />
<rect x="28" y="23" width="1" height="2" fill="#CBDBFC" />
<rect x="27" y="24" width="1" height="3" fill="#CBDBFC" />
<rect x="4" y="25" width="2" height="2" fill="#CBDBFC" />
<rect x="15" y="25" width="1" height="7" fill="#CBDBFC" />
<rect x="23" y="25" width="2" height="1" fill="#AC3232" />
<rect x="25" y="25" width="2" height="3" fill="#CBDBFC" />
<rect x="16" y="26" width="9" height="3" fill="#CBDBFC" />
<rect x="5" y="27" width="1" height="1" fill="#CBDBFC" />
<rect x="16" y="29" width="8" height="1" fill="#CBDBFC" />
<rect x="10" y="30" width="3" height="1" fill="#CBDBFC" />
<rect x="16" y="30" width="6" height="1" fill="#CBDBFC" />
<rect x="16" y="31" width="3" height="1" fill="#CBDBFC" />
</svg>